<svg width="16" height="16" viewBox="0 0 16 16" fill="none" xmlns="http://www.w3.org/2000/svg">
<path fill-rule="evenodd" clip-rule="evenodd" d="M15.6943 2.4081C16.0848 2.01758 16.0848 1.38441 15.6943 0.993889C15.3037 0.603364 14.6706 0.603364 14.2801 0.993889L8.3437 6.93024L2.40807 0.994609C2.01755 0.604085 1.38438 0.604085 0.993855 0.994609C0.603331 1.38513 0.603331 2.0183 0.993855 2.40882L6.92949 8.34446L0.993855 14.2801C0.60333 14.6706 0.603331 15.3038 0.993855 15.6943C1.38438 16.0848 2.01754 16.0848 2.40807 15.6943L8.3437 9.75867L14.2801 15.695C14.6706 16.0855 15.3037 16.0855 15.6943 15.695C16.0848 15.3045 16.0848 14.6713 15.6943 14.2808L9.75791 8.34446L15.6943 2.4081Z" fill="white"/>
</svg>
